<?xml version="1.0" encoding="UTF-8"?>
<svg id="Layer_1" data-name="Layer 1" xmlns="http://www.w3.org/2000/svg" viewBox="0 0 638.76 592.1">
  <defs>
    <style>
      .cls-1 {
        fill: #fff;
      }
    </style>
  </defs>
  <path class="cls-1" d="m638.76,149.55v442.56H0V85.23c1.4-.76,2.82-1.6,4.29-2.33C58.74,55.67,113.21,28.48,167.62,1.18c2.97-1.49,5.3-1.61,8.34-.09,54.68,27.46,109.42,54.81,164.15,82.18,1.19.59,2.34,1.24,3.86,2.05v64.23h294.79Zm-344.02-33.45c-1.2-.67-2.2-1.28-3.23-1.8-38.65-19.38-77.33-38.73-115.94-58.19-2.68-1.35-4.78-1.3-7.43.03-38.62,19.42-77.3,38.75-115.95,58.11-1.17.58-2.26,1.32-3.25,1.9-1.04,16.13-.52,422.69.52,426.74h245.28V116.1Zm294.94,426.88V199.18h-245.24c-1.04,8.2-.62,340.25.41,343.81h244.84Z"/>
  <path class="cls-1" d="m245.17,493.82h-47.71c-1.17-3.49-1.54-41.19-.52-48.12,3.83-.98,43.45-1.08,48.23-.07v48.2Z"/>
  <path class="cls-1" d="m147.08,445.3v47.74c-3.55,1.24-43.34,1.49-48.71.3v-48.04h48.71Z"/>
  <path class="cls-1" d="m245.19,346.83v48.42h-48.59c-.24-16.01-.04-32.05-.11-48.42h48.71Z"/>
  <path class="cls-1" d="m98.54,346.75h48.41v48c-3.46,1.04-38.79,1.42-48.41.47v-48.47Z"/>
  <path class="cls-1" d="m196.74,297.11v-48.4h48.46c.42,16,.07,32.03.21,48.4h-48.66Z"/>
  <path class="cls-1" d="m146.95,248.72v48.44h-47.95c-1.02-3.55-1.36-39.98-.42-48.44h48.37Z"/>
  <path class="cls-1" d="m244.98,198.62h-47.59c-1.11-3.57-1.45-40.79-.43-48.57h47.64c.97,3.43,1.32,39.75.38,48.57Z"/>
  <path class="cls-1" d="m146.96,150.04v48.5h-48.4v-48.5h48.4Z"/>
  <path class="cls-1" d="m393.47,445.28h47.92c.93,3.61,1.21,41.83.33,48.39h-48.24v-48.39Z"/>
  <path class="cls-1" d="m540.44,445.25v48.45h-47.92c-1.08-3.63-1.32-42.67-.28-48.45h48.21Z"/>
  <path class="cls-1" d="m491.92,395.25v-47.91c3.39-1.04,39.55-1.42,48.45-.47v48.38h-48.45Z"/>
  <path class="cls-1" d="m393.52,395.25c0-16.09,0-31.98,0-47.87,3.4-1.09,39.39-1.48,48.31-.48v48.34h-48.31Z"/>
  <path class="cls-1" d="m491.91,297.07v-48.35h48.54v48.35h-48.54Z"/>
  <path class="cls-1" d="m441.93,248.67v48.46h-48.31v-48.46h48.31Z"/>
</svg>