<?xml version="1.0" encoding="UTF-8"?>
<svg id="Layer_1" data-name="Layer 1" xmlns="http://www.w3.org/2000/svg" viewBox="0 0 639.41 639.28">
  <defs>
    <style>
      .cls-1 {
        fill: #fff;
      }
    </style>
  </defs>
  <path class="cls-1" d="m319.59,0c178.02.42,319.42,144.58,319.82,318.96.4,176.1-142.8,320.07-319.35,320.32C145.14,639.52.35,497.62,0,320.17-.34,145.45,141.05.6,319.59,0Zm265.92,270.84h-44.43v23.94c-.84.45-1.25.74-1.71.92-19.12,7.67-38.27,15.28-57.34,23.07-2.37.97-3.73.03-5.4-1.09-10.25-6.83-20.52-13.63-30.79-20.42-1.06-.7-2.22-1.25-2.35-1.32-8.55,8.52-16.64,16.58-24.99,24.91,7.4,14.73,15.12,30.02,22.72,45.37,1.07,2.17,2.55,2.75,4.75,2.72,5.33-.08,10.66-.04,15.99,0,1.62,0,3.24.15,5.28.25,0,7.05.15,13.69-.08,20.31-.08,2.4-.64,4.96-1.67,7.12-4.6,9.6-9.45,19.08-14.2,28.61-2.89,5.81-6.91,11.35-8.34,17.5-1.47,6.32-.42,13.24-.48,19.89,0,.17-.02.34,0,.5.45,3.01-.76,5.35-2.57,7.73-13.56,17.92-27,35.94-40.48,53.92-9.39,12.52-18.78,25.04-28.19,37.54-1.06,1.41-1.81,3.15-4.13,3.12-7.48-.08-14.96-.03-22.56-.03-.72-1.56-1.41-2.88-1.96-4.25-7.11-17.75-14.25-35.49-21.22-53.29-1-2.56-1.58-5.45-1.6-8.19-.14-17.15-.06-34.3-.08-51.45,0-1.77-.17-3.53-.29-5.69h-5.88c-20.99,0-41.98-.05-62.97.06-3.2.02-5.56-.78-7.88-3.14-14.13-14.37-28.39-28.61-42.72-42.77-2.32-2.29-3.28-4.6-3.26-7.86.13-21.31.17-42.63-.03-63.94-.04-3.78,1.2-6.02,4.16-8.23,30.31-22.57,60.53-45.26,90.7-68.02,2.5-1.89,4.69-2.39,7.77-1.61,30.27,7.65,60.59,15.11,90.87,22.76,2.41.61,3.96.43,5.71-1.38,6.61-6.82,13.31-13.54,20.09-20.18,1.7-1.67,2.3-3.44,2.26-5.75-.12-5.83-.01-11.66-.06-17.48,0-1.09-.31-2.18-.52-3.53-6.6,0-12.93-.19-19.24.07-3.48.14-5.9-1.02-8.26-3.5-5.62-5.91-11.65-11.44-17.21-17.41-2.71-2.91-5.5-4.05-9.52-4.04-37.15.16-74.3.1-111.44.08-1.92,0-3.85-.14-6.12-.23,0-4.33-.1-8.14.03-11.95.13-3.92-.61-7.9.67-12.12h23.87c8.29-24.73,16.5-49.24,24.8-74.02h48.9v-47.18c-85.84-10.99-198.42,28.56-258.93,133.34-62.23,107.75-42.56,243.89,46.47,329.85,84.87,81.95,216.51,101.44,323.52,39.53,105.44-61.01,150.69-178.13,130.31-283.04Z"/>
</svg>