<?xml version="1.0" encoding="UTF-8"?>
<svg id="Layer_1" data-name="Layer 1" xmlns="http://www.w3.org/2000/svg" viewBox="0 0 737.72 590.11">
  <defs>
    <style>
      .cls-1 {
        fill: #fff;
      }
    </style>
  </defs>
  <path class="cls-1" d="m664.08.62v5.76c0,26.15.06,52.29-.07,78.44-.02,3.71.97,6.64,3.19,9.59,22.36,29.64,44.55,59.41,66.94,89.02,2.57,3.4,3.5,6.77,3.56,10.95.2,13.81-2.42,26.88-9.74,38.66-12.59,20.26-30.25,33.31-54.23,36.89-2.93.44-5.92.43-9.36.66-.62,12.05-.2,23.81-.28,35.56-.08,11.82-.02,23.65-.02,35.47v247.58c-4.25,1.1-584.75,1.25-590.11.19v-318.33c-1.57-.31-2.8-.72-4.04-.77-23.03-1.03-40.78-11.89-54.85-29.5C3.26,226.01-.77,208.83.12,190.29c.09-1.78,1.33-3.69,2.47-5.22,14.24-19.08,28.56-38.1,42.86-57.14,8.6-11.45,17.13-22.95,25.83-34.32,1.83-2.39,2.63-4.73,2.62-7.74-.1-26.98-.06-53.96-.06-80.93,0-1.32,0-2.63,0-3.87C77.58-.01,654.86-.46,664.08.62ZM123.2,252.03v165.7h491.42c.1-1.65.25-2.96.25-4.27-.07-53.45-.14-106.9-.23-160.35,0-.13-.12-.31-.23-.39-.12-.1-.31-.12-.27-.1-32.96,24.38-65.59,24.09-97.68-.63-33.13,25.05-65.85,24.81-98.34.04-32.92,24.84-65.66,24.96-98.4-.03-32.9,25.05-65.79,24.92-98.58-.11-27.19,23.64-67.63,25.77-97.94.15Zm467.52-54.73h48.54c.67,13.59,12.28,23.82,23.95,24.05,11.38.23,20.37-7.21,22.84-19.58-18.49-24.72-37.09-49.48-55.51-74.36-2.3-3.1-4.61-4.4-8.57-4.4-168.73.11-337.46.09-506.18.09h-5.25c-11.42,15.28-22.59,30.21-33.76,45.14-7.68,10.27-15.37,20.52-23.02,30.81-1.05,1.42-2.51,2.67-1.83,4.86,2.63,8.54,9.87,16.74,19.72,17.33,13.2.79,24.47-8.05,26.44-21.22.14-.95.48-1.87.7-2.72h48.43c2.06,17.1,14.9,24.17,25.02,24.1,9.89-.07,22.47-6.67,24.92-24.2h48.19c3.97,16,11.82,23.7,24.47,24.1,5.13.16,9.9-1.08,14.13-4.04,6.94-4.85,10.78-11.54,11.28-19.97h48.59c3.68,15.65,11.22,23.19,23.6,23.95,5.32.33,10.27-.78,14.68-3.79,7.14-4.86,10.97-11.76,11.59-20.5,16.64.02,32.7-.04,48.63.03,2.12,14.43,10.92,23.33,23.18,24.23,5.52.4,10.6-.78,15.13-3.92,6.94-4.81,10.86-11.46,11.33-20.04h48.53c4.3,16.39,12.39,24.08,25.1,24.09,12.74.01,21.13-7.98,25.08-24.04Zm23.77,343.47c1.09-10.28.61-69.65-.52-73.16-8.36-1.08-487.34-.64-490.81.45-.92,9.51-.51,69.13.51,72.7h490.82Zm.05-490.88c-5.7-1.09-487.98-.83-491.69.29,0,3.91-.11,7.9.03,11.88.13,3.91-.65,7.89.57,11.71h491.09v-23.89Z"/>
</svg>