<?xml version="1.0" encoding="utf-8"?>
<!-- Generator: Adobe Illustrator 25.2.0, SVG Export Plug-In . SVG Version: 6.00 Build 0)  -->
<svg version="1.1" id="Layer_1" xmlns="http://www.w3.org/2000/svg" xmlns:xlink="http://www.w3.org/1999/xlink" x="0px" y="0px"
	 viewBox="0 0 258.67 69.97" style="enable-background:new 0 0 258.67 69.97;" xml:space="preserve">
<style type="text/css">
	.st0{fill:#FFFFFF;}
</style>
<g>
	<path class="st0" d="M74.73,53.31c-2.31,2.32-5.1,3.47-8.36,3.47c-3.26,0-6.03-1.15-8.3-3.47c-2.28-2.31-3.42-5.09-3.42-8.35
		c0-3.26,1.13-6.03,3.42-8.31c2.28-2.28,5.04-3.42,8.3-3.42c3.26,0,6.05,1.14,8.36,3.42c2.31,2.29,3.47,5.05,3.47,8.31
		C78.2,48.21,77.04,51,74.73,53.31 M256.81,1.81c-1.24-1.2-2.84-1.81-4.79-1.81c-1.89,0-3.45,0.62-4.69,1.86
		c-1.24,1.23-1.86,2.8-1.86,4.69v38.31c0,3.26-1.16,6.03-3.47,8.3c-2.31,2.29-5.1,3.43-8.36,3.43c-3.26,0-6.03-1.14-8.31-3.43
		c-2.29-2.27-3.42-5.04-3.42-8.3c0-3.25,1.14-6.04,3.42-8.36c2.28-2.31,5.05-3.46,8.31-3.46c1.95,0,3.55-0.61,4.79-1.81
		c1.24-1.2,1.86-2.78,1.86-4.74c0-1.95-0.62-3.55-1.86-4.79c-1.24-1.24-2.84-1.86-4.79-1.86c-7.04,0-12.95,2.41-17.74,7.23
		c-3.71,3.74-5.97,8.14-6.81,13.21c-0.85-5.02-3.13-9.38-6.84-13.07c-4.82-4.79-10.75-7.18-17.79-7.18
		c-7.04,0-12.95,2.39-17.73,7.18c-3.76,3.76-6.04,8.21-6.84,13.36c-0.13-5.68-2.14-10.47-6.05-14.38c-0.14-0.14-0.28-0.27-0.42-0.41
		c-3.96-3.77-8.8-5.66-14.52-5.66c-5.22,0-9.78,1.66-13.69,4.99c-3.97-3.32-8.53-4.99-13.68-4.99c-5.93,0-10.93,2.02-14.99,6.07
		c-3.41,3.39-5.39,7.43-5.94,12.14c-1.07-4.21-3.21-7.91-6.44-11.12c-4.82-4.79-10.75-7.18-17.79-7.18
		c-7.04,0-12.95,2.39-17.73,7.18c-3.64,3.64-5.89,7.92-6.76,12.85c-0.23-5.34-2.17-9.89-5.82-13.64l0.04-0.23
		c-4.07-4.05-9.07-6.07-15-6.07s-10.93,2.02-14.99,6.07C2.04,30.23,0,35.21,0,41.15v22.18c0,1.95,0.6,3.53,1.8,4.74
		c1.2,1.2,2.79,1.8,4.74,1.8c1.95,0,3.55-0.6,4.79-1.8c1.24-1.21,1.86-2.79,1.86-4.74V41.15c0-2.21,0.77-4.08,2.3-5.58
		c1.53-1.5,3.4-2.25,5.62-2.25c2.15,0,3.99,0.76,5.53,2.3c1.38,1.38,2.13,3.01,2.27,4.89c0,0.21-0.01,0.42-0.01,0.63v22.18
		c0,0.52,0.05,1.01,0.13,1.47l0,0.88l0.08-0.48c0.28,1.12,0.82,2.08,1.64,2.87c1.24,1.2,2.83,1.8,4.78,1.8c1.96,0,3.54-0.6,4.74-1.8
		c0.84-0.84,1.38-1.86,1.63-3.06V49.99c0.89,4.87,3.14,9.12,6.74,12.74c4.79,4.82,10.7,7.23,17.73,7.23
		c7.03,0,12.96-2.41,17.79-7.23c3.06-3.06,5.15-6.57,6.27-10.52v11.11c0,1.95,0.62,3.53,1.86,4.74c1.24,1.2,2.84,1.8,4.79,1.8
		c1.95,0,3.53-0.6,4.74-1.8c1.2-1.21,1.81-2.79,1.81-4.74V41.15c0-2.21,0.76-4.08,2.29-5.58c1.54-1.5,3.41-2.25,5.62-2.25
		c2.15,0,4.01,0.76,5.58,2.3c1.56,1.54,2.34,3.37,2.34,5.53v22.18c0,1.95,0.6,3.53,1.81,4.74c1.21,1.2,2.79,1.8,4.74,1.8
		c1.95,0,3.55-0.6,4.79-1.8c1.23-1.21,1.86-2.79,1.86-4.74V36.36c1.57-2.02,3.64-3.03,6.26-3.03c2.15,0,3.99,0.76,5.52,2.3
		c1.52,1.54,2.29,3.37,2.29,5.53l0.17,0.31v21.87c0,1.95,0.62,3.53,1.86,4.74c1.24,1.2,2.83,1.8,4.79,1.8c1.95,0,3.53-0.6,4.74-1.8
		c0.84-0.84,1.38-1.86,1.63-3.06V49.42c0.82,5.11,3.09,9.56,6.83,13.32c4.79,4.82,10.7,7.23,17.73,7.23c1.96,0,3.55-0.62,4.79-1.86
		c1.23-1.24,1.86-2.84,1.86-4.79c0-1.95-0.63-3.53-1.86-4.73c-1.24-1.21-2.83-1.81-4.79-1.81c-3.26,0-6.02-1.15-8.31-3.47
		c-2.28-2.31-3.42-5.09-3.42-8.35c0-3.26,1.14-6.03,3.42-8.31c2.28-2.28,5.05-3.42,8.31-3.42c3.26,0,6.05,1.14,8.36,3.42
		c2.31,2.29,3.46,5.05,3.46,8.31v18.27c0,1.96,0.6,3.53,1.81,4.74c1.2,1.2,2.79,1.81,4.74,1.81c1.95,0,3.55-0.61,4.79-1.81
		c1.23-1.21,1.85-2.78,1.85-4.74V51.28c1.05,4.24,3.21,8,6.47,11.26c4.82,4.82,10.72,7.24,17.69,7.24c6.97,0,12.88-2.41,17.74-7.24
		c4.85-4.82,7.28-10.71,7.28-17.68V6.55C258.67,4.6,258.04,3.01,256.81,1.81"/>
</g>
</svg>
